<svg width="191" height="230" viewBox="0 0 191 230" fill="none" xmlns="http://www.w3.org/2000/svg">
  <g clip-path="url(#clip0)">
  <path d="M109.595 0.0234816L109.548 28.1307L92.0202 28.1072C74.6096 28.0837 60.4562 42.2195 60.4328 59.6896C60.4328 77.1598 74.5393 91.319 91.9499 91.3425C109.384 91.366 123.537 77.2067 123.537 59.7601L123.561 42.196L151.61 42.2195L151.586 59.7836C151.563 92.7749 124.85 119.473 91.9265 119.45C59.0268 119.403 32.3602 92.634 32.3837 59.6662C32.4305 26.6748 59.144 -0.0234812 92.0671 2.18362e-07L109.595 0.0234816Z" fill="#161020"/>
  <path fill-rule="evenodd" clip-rule="evenodd" d="M137.644 0.0469666C145.377 0.0469666 151.657 6.36345 151.633 14.1123C151.633 21.8846 145.353 28.1542 137.597 28.1542C129.864 28.1542 123.584 21.8377 123.584 14.0888C123.608 6.31649 129.888 0.0469666 137.644 0.0469666Z" fill="#C647FB"/>
  <path fill-rule="evenodd" clip-rule="evenodd" d="M57.9254 202.198C57.9254 206.871 57.1522 211.027 55.5822 214.667C54.0356 218.283 51.8798 221.171 49.185 223.331C46.4668 225.515 43.3971 227.135 40.0228 228.239C36.625 229.319 32.9695 229.883 29.0094 229.859C25.8928 229.859 22.9168 229.53 20.1049 228.849C17.2929 228.168 14.645 227.112 12.1846 225.632C9.72414 224.177 7.61519 222.392 5.8343 220.255C4.02997 218.142 2.624 215.512 1.61639 212.412C0.585346 209.313 0.0698242 205.885 0.0698242 202.128L0.11669 166.976L16.5665 166.999L16.5431 200.695C16.5431 205.392 17.6679 208.843 19.9409 211.097C22.2138 213.375 25.2367 214.502 29.0328 214.502C32.8055 214.502 35.8283 213.375 38.1247 211.121C40.3977 208.867 41.5225 205.415 41.5225 200.719L41.5693 167.023L57.9723 167.046L57.9254 202.198ZM94.4338 165.426C101.932 165.45 107.908 168.127 112.407 173.48L112.43 148.848H128.857L128.763 228.38H112.665L112.688 221.617C108.165 227.159 102.073 229.953 94.3635 229.93C85.9042 229.93 78.8744 226.853 73.2271 220.678C67.6032 214.526 64.7913 206.847 64.8147 197.643C64.8147 188.461 67.6501 180.783 73.2974 174.654C78.9212 168.502 85.9745 165.426 94.4338 165.426ZM97.4566 180.807C92.7466 180.807 88.9271 182.403 86.0214 185.62C83.1157 188.861 81.6629 192.876 81.6629 197.666C81.6395 202.48 83.0923 206.495 85.998 209.712C88.9036 212.953 92.6997 214.573 97.4097 214.573C102.073 214.573 105.892 212.999 108.798 209.806C111.727 206.636 113.203 202.597 113.203 197.713C113.203 192.806 111.751 188.767 108.845 185.597C105.916 182.403 102.12 180.807 97.4566 180.807ZM183.83 184.258C176.917 180.9 170.426 179.233 164.334 179.233C161.264 179.233 158.921 179.726 157.327 180.713C155.734 181.699 154.914 183.061 154.914 184.775C154.914 185.667 155.148 186.419 155.617 187.006C156.062 187.593 156.835 188.086 157.89 188.461C158.944 188.837 159.952 189.142 160.913 189.354C161.873 189.565 163.209 189.8 164.873 190.035L170.309 190.88C184.064 192.993 190.93 199.122 190.93 209.242C190.93 215.606 188.423 220.654 183.455 224.411C178.487 228.145 171.621 230.023 162.811 230C151.54 230 142.494 227.581 135.629 222.768L142.143 210.252C148.118 214.267 155.054 216.287 162.975 216.287C170.497 216.287 174.269 214.385 174.269 210.534C174.269 209.078 173.473 207.881 171.879 206.988C170.262 206.119 167.685 205.415 164.123 204.898L159.132 204.194C145.025 202.198 137.995 195.999 137.995 185.597C138.019 179.304 140.292 174.396 144.861 170.85C149.431 167.328 155.757 165.567 163.842 165.567C173.168 165.591 181.698 167.54 189.384 171.414L183.83 184.258Z" fill="#161020"/>
  </g>
  <defs>
  <clipPath id="clip0">
  <rect width="191" height="230" fill="white"/>
  </clipPath>
  </defs>
</svg>
